<svg width="35" height="33" viewBox="0 0 35 33" fill="none" xmlns="http://www.w3.org/2000/svg">
<path d="M29.3438 17.1719C29.3438 17.7031 29.151 18.1719 28.7656 18.5781L27.5938 19.75C27.1979 20.1458 26.724 20.3438 26.1719 20.3438C25.6094 20.3438 25.1406 20.1458 24.7656 19.75L20.1719 15.1719V26.1719C20.1719 26.7135 19.9766 27.1536 19.5859 27.4922C19.1953 27.8307 18.724 28 18.1719 28H16.1719C15.6198 28 15.1484 27.8307 14.7578 27.4922C14.3672 27.1536 14.1719 26.7135 14.1719 26.1719V15.1719L9.57812 19.75C9.20312 20.1458 8.73438 20.3438 8.17188 20.3438C7.60938 20.3438 7.14062 20.1458 6.76562 19.75L5.59375 18.5781C5.19792 18.1823 5 17.7135 5 17.1719C5 16.6198 5.19792 16.1458 5.59375 15.75L15.7656 5.57812C16.1302 5.19271 16.599 5 17.1719 5C17.7344 5 18.2083 5.19271 18.5938 5.57812L28.7656 15.75C29.151 16.1562 29.3438 16.6302 29.3438 17.1719Z" fill="white"/>
</svg>
